<svg xmlns="http://www.w3.org/2000/svg" viewBox="2.61 22 251.09 211.16" width="251.09" height="211.16"><path d="M253.7 68.69c0-24.65-21.39-46.69-46.04-46.69h-.78c-16.12 0-29.48 10.01-34.45 24.49-14.31-5.87-28.73-8.77-44.83-8.77h-.09c-16.34 0-30.14 2.67-44.25 8.75C77.63 32.76 66.11 22 47.48 22h-.78C22.71 22 2.61 43.19 2.61 68.69c0 13.4 7.13 24.97 17.39 33.1-8.24 15.1-11.83 32.12-11.83 53.32 0 39.13 37.55 78.05 118.7 78.05h.18c73.02-.19 120.7-32.97 120.7-78.25 0-16.8-4.54-34.38-12.6-52.17 10.91-7.81 18.5-19.17 18.5-34.05z" fill="#a5726c"/><path d="M28.99 88.71c-7.28-5.52-11.08-14.01-11.08-21.9 0-14.4 11.57-27.04 27.8-27.04 11.3 0 18.4 5.34 22.76 12.75-15.66 9.06-27.25 20.29-39.48 36.19m197.51.17c7.28-5.52 10.96-13.64 10.96-21.52 0-14.4-10.93-27.59-28.31-27.59-10.43 0-17.6 5.61-22.13 12.64 15.66 9.06 27.25 20.57 39.48 36.47m-59.2 5.78c-20.14 0-33.25 10.36-39.61 22.79-7.53-13.23-21.3-22.89-39.5-22.89-25.5 0-45.1 20.69-45.1 44.26v.1c0 22.52 18.57 43.33 43.04 43.33h5.04c-2.98 4.72-3.61 8.61-3.61 12.96 0 15.97 16.61 30.53 40.13 30.53 23.51 0 40.68-15.13 40.68-30.11 0-5.32-1.28-8.66-3.73-12.91h2.76c23.51 0 44.8-20.81 44.8-43.8s-19.18-44.26-44.9-44.26" fill="#f0d0a6"/><path d="M79.41 124.6c-11.68.59-19.7 11.55-19.7 20.82 0 11.33 8.9 20.71 19.91 20.71 11.6 0 20.99-10.23 20.99-20.91s-8.73-21.25-21.2-20.62m95.09.1c-11.68.59-19.7 11.55-19.7 20.82 0 11.33 8.9 20.71 19.91 20.71 11.61 0 20.99-10.23 20.99-20.91s-8.73-21.25-21.2-20.62"/><path d="M125.866 180.979s-8.148-7.13-4.874-11.096c1.382-1.674 11.966-2.416 14.071 1.677 1.761 3.425-5.743 9.67-5.743 9.67v6.03l11.86 10.9c1.75 1.75-1.01 4.17-2.96 2.83l-10.6-9.86-9.86 9.24c-2.14 1.34-4.28-.79-3.04-2.83l10.9-10.9" fill="#59392a"/><path d="m93.72 135.7-3.8-1.94-2.24-4.56c-.42-.74-1.37-.52-1.53.21l-1.84 4.35-3.3 2.87c-.53.53-.21 1.37.52 1.58l3.59 1.65 1.65 3.59c.32.74 1.34.64 1.65-.21l1.94-4.14 3.49-1.74c.84-.31.84-1.35-.13-1.66m2.57 8.1-1.28-.94c-.32-.21-.85-.1-1.06.31l-.73 1.65-.96.63c-.53.42-.32 1.15.31 1.25l1.28.21.73 1.05c.32.52 1.17.31 1.27-.32l.32-1.56 1.05-.84c.42-.42.21-1.15-.52-1.25zm93.51-7.7-3.8-1.94-2.24-4.56c-.42-.73-1.37-.52-1.53.21l-1.84 4.35-3.29 2.87c-.53.53-.21 1.37.52 1.58l3.59 1.65 1.65 3.59c.32.73 1.34.63 1.65-.21l1.94-4.14 3.49-1.74c.84-.31.73-1.46-.14-1.66m2.2 8.1-1.28-.95c-.32-.2-.85-.1-1.06.32l-.73 1.65-.96.63c-.52.42-.31 1.15.32 1.25l1.28.21.73 1.05c.32.52 1.17.31 1.27-.32l.32-1.56 1.05-.84c.42-.42.21-1.15-.52-1.25zm-123.08 9.4c-1.44 1.15-.81 4.33 1.74 5.06 2.24.63 3.3-2.24 1.35-4.48-.83-.95-2.17-1.26-3.09-.58m94.88-.2c-1.44 1.15-.81 4.33 1.74 5.06 2.24.63 3.3-2.24 1.36-4.48-.84-.95-2.18-1.26-3.1-.58" fill="#fff"/></svg>